<svg width="53" height="53" viewBox="0 0 53 53" fill="none" xmlns="http://www.w3.org/2000/svg">
<path fill-rule="evenodd" clip-rule="evenodd" d="M46.375 13.1573C46.3949 14.4977 46.2271 16.1783 46.0791 17.4039C46.0322 17.8088 45.9584 18.2101 45.8583 18.6052C47.7486 22.1054 48.5833 26.3167 48.5833 30.9167C48.5833 36.3668 45.9621 40.8564 41.8788 43.9171C37.8332 46.9492 32.3742 48.5833 26.5 48.5833C20.6259 48.5833 15.1669 46.9492 11.1212 43.9171C7.03798 40.8564 4.41669 36.3668 4.41669 30.9167C4.41669 26.3167 5.24923 22.1054 7.14398 18.6052C7.04384 18.2101 6.97006 17.8088 6.92315 17.4039C6.77077 16.1783 6.60294 14.4977 6.62502 13.1573C6.6471 11.649 6.84585 10.1407 7.06448 8.64343C7.16606 7.95001 7.32506 7.29855 8.0781 6.8878C8.8466 6.46822 9.65485 6.6228 10.4521 6.85026C13.1418 7.61214 15.6637 8.68318 18.0355 9.96401C20.5375 9.21539 23.3598 8.83334 26.5 8.83334C29.6403 8.83334 32.4625 9.21539 34.9623 9.96622C37.3674 8.65139 39.9107 7.6071 42.5458 6.85247C43.343 6.62501 44.1534 6.46822 44.9197 6.8878C45.6706 7.29855 45.8318 7.95001 45.9356 8.64343C46.152 10.1407 46.3529 11.649 46.375 13.1573ZM44.1667 30.9167C44.1667 27.1912 43.3098 22.0833 38.6458 22.0833C36.5435 22.0833 34.5538 22.6354 32.5663 23.1875C30.581 23.7396 28.5979 24.2917 26.5 24.2917C24.4021 24.2917 22.419 23.7396 20.4337 23.1875C18.4462 22.6354 16.4587 22.0833 14.3542 22.0833C9.70344 22.0833 8.83335 27.2067 8.83335 30.9167C8.83335 34.8122 10.6596 38.0518 13.7712 40.3838C16.9159 42.7445 21.3988 44.1667 26.5 44.1667C31.6013 44.1667 36.082 42.7423 39.2288 40.3838C42.3404 38.0496 44.1667 34.8122 44.1667 30.9167ZM22.0834 32.0208C22.0834 35.0683 20.5994 37.5417 18.7709 37.5417C16.9424 37.5417 15.4584 35.0683 15.4584 32.0208C15.4584 28.9733 16.9424 26.5 18.7709 26.5C20.5994 26.5 22.0834 28.9733 22.0834 32.0208ZM34.2292 37.5417C36.0577 37.5417 37.5417 35.0683 37.5417 32.0208C37.5417 28.9733 36.0577 26.5 34.2292 26.5C32.4007 26.5 30.9167 28.9733 30.9167 32.0208C30.9167 35.0683 32.4007 37.5417 34.2292 37.5417Z" fill="#6A994E"/>
</svg>
