<svg width="53" height="53" viewBox="0 0 53 53" fill="none" xmlns="http://www.w3.org/2000/svg">
<path fill-rule="evenodd" clip-rule="evenodd" d="M13.25 4.41666C10.9073 4.41666 8.66048 5.34731 7.00391 7.00388C5.34734 8.66045 4.41669 10.9072 4.41669 13.25V39.75C4.41669 42.0927 5.34734 44.3395 7.00391 45.9961C8.66048 47.6527 10.9073 48.5833 13.25 48.5833H39.75C42.0928 48.5833 44.3396 47.6527 45.9961 45.9961C47.6527 44.3395 48.5833 42.0927 48.5833 39.75V13.25C48.5833 10.9072 47.6527 8.66045 45.9961 7.00388C44.3396 5.34731 42.0928 4.41666 39.75 4.41666H13.25ZM8.83335 13.25C8.83335 12.0786 9.29868 10.9552 10.127 10.1269C10.9552 9.29865 12.0786 8.83332 13.25 8.83332H39.75C40.9214 8.83332 42.0448 9.29865 42.8731 10.1269C43.7014 10.9552 44.1667 12.0786 44.1667 13.25V39.75C44.1667 40.9214 43.7014 42.0448 42.8731 42.873C42.0448 43.7013 40.9214 44.1666 39.75 44.1666H13.25C12.0786 44.1666 10.9552 43.7013 10.127 42.873C9.29868 42.0448 8.83335 40.9214 8.83335 39.75V13.25ZM19.875 24.2917C19.875 23.706 19.6424 23.1443 19.2282 22.7301C18.8141 22.316 18.2524 22.0833 17.6667 22.0833C17.081 22.0833 16.5193 22.316 16.1052 22.7301C15.691 23.1443 15.4584 23.706 15.4584 24.2917V37.5417C15.4584 38.1273 15.691 38.689 16.1052 39.1032C16.5193 39.5173 17.081 39.75 17.6667 39.75C18.2524 39.75 18.8141 39.5173 19.2282 39.1032C19.6424 38.689 19.875 38.1273 19.875 37.5417V24.2917ZM20.9792 16.5625C20.9792 17.441 20.6302 18.2836 20.009 18.9048C19.3878 19.526 18.5452 19.875 17.6667 19.875C16.7882 19.875 15.9456 19.526 15.3244 18.9048C14.7032 18.2836 14.3542 17.441 14.3542 16.5625C14.3542 15.684 14.7032 14.8414 15.3244 14.2202C15.9456 13.599 16.7882 13.25 17.6667 13.25C18.5452 13.25 19.3878 13.599 20.009 14.2202C20.6302 14.8414 20.9792 15.684 20.9792 16.5625ZM26.5 22.0833C27.2509 22.0833 27.9133 22.4587 28.3109 23.0285C29.449 22.4082 30.7246 22.0832 32.0208 22.0833C36.7908 22.0833 39.75 26.3366 39.75 29.9693V37.5417C39.75 38.1273 39.5174 38.689 39.1032 39.1032C38.6891 39.5173 38.1274 39.75 37.5417 39.75C36.956 39.75 36.3943 39.5173 35.9802 39.1032C35.566 38.689 35.3333 38.1273 35.3333 37.5417V29.9671C35.3333 28.2711 33.8758 26.4978 32.0208 26.4978C30.8637 26.4978 29.5851 27.1272 28.7084 28.6244V37.5417C28.7084 38.1273 28.4757 38.689 28.0615 39.1032C27.6474 39.5173 27.0857 39.75 26.5 39.75C25.9143 39.75 25.3526 39.5173 24.9385 39.1032C24.5243 38.689 24.2917 38.1273 24.2917 37.5417V24.2917C24.2917 23.706 24.5243 23.1443 24.9385 22.7301C25.3526 22.316 25.9143 22.0833 26.5 22.0833Z" fill="#6A994E"/>
</svg>
