<svg width="50" height="50" viewBox="0 0 50 50" fill="none" xmlns="http://www.w3.org/2000/svg">
<path d="M41.6667 45.8333H8.33332C6.03214 45.8333 4.16666 43.9678 4.16666 41.6667V18.8521C4.23697 17.4539 4.99432 16.181 6.18957 15.4521L22.8562 5.45208C24.1752 4.6612 25.8227 4.6612 27.1417 5.45208L43.8083 15.4521C45.0608 16.2079 45.8284 17.5622 45.8333 19.025V41.6667C45.8333 43.9678 43.9678 45.8333 41.6667 45.8333ZM8.33332 20.5583V41.6667H41.6667V20.5583L25 31.6687L8.33332 20.5583ZM25 9.025L11.075 17.3792L25 26.6625L38.9229 17.3792L25 9.025Z" fill="#6A994E"/>
</svg>
