<svg width="15" height="15" viewBox="0 0 15 15" fill="none" xmlns="http://www.w3.org/2000/svg">
<path d="M1.53167 11.0367C1.65058 11.9945 2.42435 12.7511 3.38428 12.8515C4.71258 12.9903 6.08924 13.1369 7.5 13.1369C8.91076 13.1369 10.2874 12.9903 11.6157 12.8515C12.5756 12.7511 13.3494 11.9945 13.4683 11.0367C13.6103 9.89313 13.75 8.71051 13.75 7.49998C13.75 6.28944 13.6103 5.10683 13.4683 3.96329C13.3494 3.00549 12.5756 2.24885 11.6157 2.1485C10.2874 2.00965 8.91076 1.86304 7.5 1.86304C6.08924 1.86304 4.71257 2.00965 3.38428 2.1485C2.42435 2.24885 1.65058 3.00549 1.53166 3.96329C1.38969 5.10683 1.25 6.28944 1.25 7.49998C1.25 8.71051 1.38969 9.89312 1.53167 11.0367Z" fill="#D7E0FF" stroke="#4147D5" stroke-width="1.5" stroke-linejoin="round"/>
<path d="M1.55957 3.70435L6.26169 7.41181C6.98793 7.98443 8.01207 7.98443 8.73831 7.41181L13.4404 3.70435" stroke="#4147D5" stroke-width="1.5" stroke-linejoin="round"/>
</svg>
